<?xml version="1.0" standalone="no"?>
<!DOCTYPE svg PUBLIC "-//W3C//DTD SVG 20010904//EN"
 "http://www.w3.org/TR/2001/REC-SVG-20010904/DTD/svg10.dtd">
<svg version="1.0" xmlns="http://www.w3.org/2000/svg"
 width="400.000000pt" height="300.000000pt" viewBox="0 0 400.000000 300.000000"
 preserveAspectRatio="xMidYMid meet">

<g transform="translate(0.000000,300.000000) scale(0.100000,-0.100000)"
fill="#000000" stroke="none">
<path d="M952 2418 c-7 -7 -12 -18 -12 -26 0 -8 231 -413 512 -899 533 -919
534 -921 574 -882 12 12 146 237 232 389 14 25 198 343 409 708 293 506 384
669 381 690 l-3 27 -1040 3 c-801 2 -1044 -1 -1053 -10z m1968 -84 c0 -5 -512
-891 -570 -986 l-16 -27 -109 134 c-60 75 -112 134 -115 133 -4 -2 -44 -45
-90 -96 -46 -51 -86 -89 -90 -85 -3 4 -19 25 -34 47 l-29 38 -97 -97 -97 -97
-283 489 c-156 268 -293 503 -303 521 l-19 32 926 0 c509 0 926 -3 926 -6z"/>
<path d="M2077 2183 c-30 -8 -37 -47 -37 -196 0 -155 9 -187 54 -187 38 0 54
21 58 78 3 48 1 52 -19 52 -20 0 -23 -5 -23 -45 0 -47 -16 -61 -25 -22 -11 42
-1 270 12 274 8 3 13 -11 15 -39 2 -35 7 -43 23 -43 17 0 19 6 17 50 -2 36 -9
55 -24 68 -11 9 -23 16 -27 16 -3 -1 -14 -3 -24 -6z"/>
<path d="M2449 2183 c-9 -2 -21 -15 -28 -29 -20 -45 -13 -94 24 -160 26 -46
35 -74 35 -108 0 -58 -18 -61 -22 -3 -2 35 -7 43 -25 45 -21 3 -23 -1 -23 -40
0 -52 22 -88 55 -88 40 0 55 25 55 94 0 52 -5 70 -30 109 -22 35 -30 60 -30
92 0 25 5 45 10 45 6 0 10 -18 10 -40 0 -33 3 -40 20 -40 17 0 20 7 20 49 0
40 -4 53 -22 65 -12 9 -25 15 -28 15 -3 -1 -12 -3 -21 -6z"/>
<path d="M1472 1993 c3 -180 4 -188 23 -188 18 0 20 8 23 78 3 68 5 77 22 77
32 0 50 39 50 110 0 87 -16 110 -76 110 l-44 0 2 -187z m68 77 c0 -40 -4 -70
-10 -70 -6 0 -10 30 -10 70 0 40 4 70 10 70 6 0 10 -30 10 -70z"/>
<path d="M1670 1990 l0 -190 46 0 c41 0 45 2 42 23 -2 14 -10 22 -23 22 -19 0
-20 8 -23 168 -2 159 -3 167 -22 167 -19 0 -20 -7 -20 -190z"/>
<path d="M1876 2168 c-5 -17 -46 -330 -46 -351 0 -10 8 -17 19 -17 16 0 21 9
27 45 5 35 10 45 25 45 16 0 19 -7 19 -40 0 -41 21 -63 40 -44 5 5 -2 83 -15
179 -14 94 -25 176 -25 183 0 6 -9 12 -20 12 -11 0 -22 -6 -24 -12z m33 -206
c1 -20 -3 -32 -10 -30 -6 2 -10 7 -10 11 1 4 1 28 2 55 1 38 2 42 9 22 4 -14
8 -40 9 -58z"/>
<path d="M2240 1990 l0 -190 45 0 c40 0 45 2 45 23 0 18 -5 23 -22 23 -22 -1
-23 3 -23 64 0 60 2 65 23 68 32 5 30 42 -3 42 -24 0 -25 3 -25 60 0 57 1 60
25 60 18 0 25 5 25 20 0 17 -7 20 -45 20 l-45 0 0 -190z"/>
</g>
</svg>
